<svg width="1266" height="1258" viewBox="0 0 1266 1258" fill="none" xmlns="http://www.w3.org/2000/svg">
<path d="M1068.04 1.85041C990.041 9.98374 889.908 39.3171 788.175 83.8504C760.975 95.8504 696.841 128.117 671.508 142.65C598.575 184.517 515.108 242.784 460.842 289.717C404.842 338.25 357.908 385.184 314.042 436.517C161.242 615.717 67.3749 806.917 23.5082 1028.65C9.64155 1098.52 -2.49178 1197.98 0.44155 1217.05C2.84155 1231.98 12.7082 1245.32 27.1082 1252.65C37.1082 1257.85 53.6415 1258.65 64.4415 1254.52C74.3082 1250.92 83.9082 1242.12 89.3749 1231.98C94.1749 1223.05 94.9749 1217.32 97.5082 1177.85C98.3082 1165.32 99.9082 1148.25 100.975 1139.85C103.108 1122.78 112.042 1065.72 112.975 1062.38C113.508 1060.65 116.975 1060.12 135.242 1059.45C218.842 1056.12 318.175 1034.78 394.975 1003.72C472.575 972.384 535.508 935.05 606.841 878.117C638.841 852.517 643.375 846.784 643.375 831.184C643.375 820.784 640.575 813.85 633.908 807.717C631.908 805.717 613.641 793.584 593.508 780.784C548.841 752.384 545.775 750.117 543.375 744.384C540.842 738.25 540.975 736.65 544.708 732.25L547.908 728.517H608.441C673.375 728.384 681.641 727.85 717.641 720.517C747.641 714.384 767.508 707.584 794.975 693.717C816.975 682.784 837.508 668.784 859.508 650.117C893.908 620.784 1018.57 495.984 1062.84 446.517C1134.31 366.784 1184.71 300.65 1216.84 244.517C1240.44 203.45 1251.51 177.584 1260.17 143.85C1265.77 122.117 1267.11 95.3171 1263.64 79.3171C1260.04 63.1837 1250.84 46.3837 1239.51 35.0504C1223.24 18.7837 1195.51 7.05041 1160.84 1.85041C1144.17 -0.682927 1092.31 -0.549594 1068.04 1.85041Z" fill="#2563eb"/>
</svg>
